<svg xmlns="http://www.w3.org/2000/svg" xmlns:xlink="http://www.w3.org/1999/xlink" width="165" height="18" viewBox="0 0 165 18"><defs><path id="5wa9a" d="M1276.77 2673.05c0-.62-.16-1.08-.47-1.39-.32-.3-.64-.46-1.27-.46-.47 0-.79.15-1.1.46-.32.31-.48.93-.48 1.55 0 .77.16 1.23.32 1.7.15.3.47.46 1.1.76l1.59.31c.31.16.47.16.63.16.16 0 .32.15.47.3.16.16.48.31.64.47l.47.46c.32.46.48.77.64 1.24.15.46.15.92.15 1.54v.46a8.9 8.9 0 0 1-.31 2.16 2.97 2.97 0 0 1-.8 1.4c-.31.3-.79.6-1.26.76-.48.16-1.1.31-1.74.31-.8 0-1.43-.15-2.06-.46-.47-.31-.95-.62-1.27-.93a4.34 4.34 0 0 1-.79-2.62v-.62h2.38v.47c0 .61.16 1.08.31 1.38.32.31.64.47 1.27.47s1.1-.16 1.42-.62c.32-.3.32-.77.32-1.54v-.62c0-.77-.16-1.24-.32-1.7-.15-.3-.63-.46-1.1-.77l-1.74-.62c-.48-.15-.95-.46-1.27-.61-.32-.31-.63-.62-.8-1.08-.3-.47-.3-1.24-.3-2.32v-.3a3.9 3.9 0 0 1 1.26-2.94c.63-.62 1.58-.93 2.85-.93 1.26 0 2.21.31 2.85 1.08.63.78 1.1 1.7 1.1 3.1v.45h-2.69zm-28.01-4.01h2.53v2.47l-2.53 2.47zm-27.7 0h2.37v7.71l3.64-7.71h2.53l-3.32 6.48 3.96 9.41h-2.54l-2.85-7.1-1.42 2.47v4.63h-2.38zm-22.48 0h2.37v15.9h-2.37zm-28.81 0h2.37l3.96 10.03v-10.03h2.37v15.9h-2.37l-3.96-10.04v10.03h-2.37zm-22.32 12.04v-8.18c0-.62-.16-1.08-.48-1.4-.31-.3-.79-.45-1.26-.45-.48 0-.95.15-1.27.46-.31.3-.47.77-.47 1.39v8.18c0 .61.16 1.08.47 1.38.32.31.8.47 1.27.47s.95-.16 1.26-.47c.32-.3.48-.77.48-1.38zm-5.86-.31v-7.56c0-.78 0-1.4.16-1.86a4.1 4.1 0 0 1 .95-1.54 4.62 4.62 0 0 1 2.85-1.08c1.1 0 2.06.3 2.85 1.08.47.46.8.93.95 1.54.32.47.47 1.08.47 1.86v7.56c0 .77-.15 1.39-.15 1.85a4.1 4.1 0 0 1-.95 1.54 4.62 4.62 0 0 1-2.85 1.08c-1.11 0-2.06-.3-2.85-1.08-.48-.46-.8-.92-.95-1.54a3.23 3.23 0 0 1-.48-1.85zm-26.59-11.73h8.07v2.16h-2.85v13.73h-2.37v-13.73H1115z"/></defs><g><g transform="translate(-1115 -2668)"><use fill="#1b1918" xlink:href="#5wa9a"/></g></g></svg>