<svg xmlns="http://www.w3.org/2000/svg" xmlns:xlink="http://www.w3.org/1999/xlink" width="165" height="68" viewBox="0 0 165 68"><defs><path id="a" d="M199.77 43.51zm0-.46c0-.62-.16-1.08-.48-1.39-.31-.3-.63-.46-1.26-.46-.48 0-.8.15-1.11.46-.32.31-.47.93-.47 1.55 0 .77.15 1.23.31 1.7.16.3.48.46 1.11.76l1.58.31c.32.16.48.16.64.16.15 0 .31.15.47.3.16.16.48.31.63.47l.48.46c.32.46.47.77.63 1.24.16.46.16.92.16 1.54v.46a8.9 8.9 0 0 1-.32 2.16 2.97 2.97 0 0 1-.79 1.4c-.31.3-.79.6-1.26.76-.48.16-1.11.31-1.75.31-.79 0-1.42-.15-2.05-.46-.48-.31-.95-.62-1.27-.93a4.34 4.34 0 0 1-.8-2.62v-.62h2.38v.46c0 .62.16 1.08.32 1.4.32.3.63.46 1.27.46.63 0 1.1-.16 1.42-.62.32-.3.32-.77.32-1.54v-.62c0-.77-.16-1.24-.32-1.7-.16-.3-.63-.46-1.1-.77l-1.75-.62c-.47-.15-.95-.46-1.26-.61-.32-.31-.64-.62-.8-1.08-.31-.47-.31-1.24-.31-2.32v-.3a3.9 3.9 0 0 1 1.26-2.94c.64-.62 1.59-.93 2.85-.93 1.27 0 2.22.31 2.85 1.08.64.78 1.11 1.7 1.11 3.1v.45h-2.7zm-28.02-4.01h2.53v2.47l-2.53 2.47zm-27.7 0h2.38v7.71l3.64-7.71h2.53l-3.32 6.48 3.95 9.41h-2.53l-2.85-7.1-1.42 2.47v4.63h-2.38zm-22.47 0h2.37v15.9h-2.37zm-28.81 0h2.37l3.96 10.03V39.04h2.37v15.9H99.1L95.14 44.9v10.03h-2.37zM70.45 51.07V42.9c0-.62-.16-1.08-.48-1.4-.31-.3-.79-.46-1.26-.46-.48 0-.95.16-1.27.47-.32.3-.47.77-.47 1.39v8.17c0 .62.15 1.08.47 1.4.32.3.8.46 1.27.46s.95-.16 1.26-.47c.32-.3.48-.77.48-1.39zm-5.86-.3V43.2c0-.78 0-1.4.16-1.86a4.1 4.1 0 0 1 .95-1.54 4.62 4.62 0 0 1 2.85-1.08c1.1 0 2.06.3 2.85 1.08.47.46.79.93.95 1.54.31.47.47 1.08.47 1.86v7.56c0 .77-.16 1.38-.16 1.85a4.1 4.1 0 0 1-.94 1.54 4.62 4.62 0 0 1-2.85 1.08c-1.11 0-2.06-.3-2.85-1.08-.48-.46-.8-.92-.95-1.54a3.23 3.23 0 0 1-.48-1.85zM38 39.04h8.07v2.16h-2.85v13.73h-2.37V41.2H38z"/><path id="b" d="M135.5 65.58c-.47.93-.79 1.85.32 2.62.95 0 1.1-.77 1.43-1.23.63-.77.47-1.85-.16-2.32-.8-.61-.95.62-1.59.93zm-9.8-1.23c-.8 1.38-1.28 3.54.94 1.85 1.27-1.08 2.85-3.24 2.06-3.55-.32 0-2.06-.16-3 1.7zm-17.58-1.4c-2.06 2.78-1.58 6.49.95 7.41-.32-2.16-.47-4.47-.95-6.79v-.61zm23.27 4.02c1.27-1.39 2.37-2.78 3.64-4.17 2.22-2.62 5.86 1.08 6.17 3.09.16.77.48 1.7 1.27 1.85.95.15 1.27-.77 1.58-1.54.32-.47.48-1.08.64-1.55.31-.61.79-.92 1.58-.92s.95.46 1.1 1.08c.16.46.32 1.08.96.92.63-.15.95-.46 1.1-1.08.32-.77.64-1.7.8-2.47.15-.61.63-.92 1.26-.92s1.11.3 1.27.92l.47 1.86c.32 1.39.8 2.62 2.7 2.47.47 0 1.1.3 1.1.92 0 .77-.79 1.39-1.58 1.39-1.27 0-2.38-.3-3.17-1.54-.63-.93-1.26-1.08-1.9-.16-1.26 1.55-2.85.93-4.43 1.24-1.42.3-2.37 2.47-4.11 1.54-2.06-.93-3.49-1.23-5.07.62-.63.77-2.06.15-2.69-.77-.47-.62-.8-1.24-1.1-1.86-1.43 1.55-3.65 4.17-5.86 4.32-1.75.16-3.17-.46-3.96-2.16-2.53-5.24 4.27-11.88 7.44-8.8 2.85 2.63-2.53 6.8-4.9 8.03.94 3.09 5.06-1.85 5.69-2.31zm-25.96-33.95c-.16-.77-.63-1.85.47-2 1.11-.16 1.11.92 1.11 1.54.8 3.86 1.59 10.65 2.38 15.27.47 2.94 1.1 4.94 3.48 4.63 7.76-1.23 12.82 7.72 9.02 14.82-3 5.55-8.86 3.55-9.18 7.87 0 .77 0 1.54-1.1 1.7-1.11 0-1.43-.62-1.59-1.55 0-1.23-.8-2.16-1.9-2.47-1.9-.62-2.69-2.16-3-3.86-.32-1.85-.32-3.7.63-5.4.31-.46 2.21-3.55 2.21-3.7 1.27-5.1-.16-11.88-1.1-17.74-.48-3.55-.8-6.95-1.43-9.1zm6.65 38.11c4.9-1.85 10.13-3.85 8.39-11.41-1.9-8.34-11.24-6.18-9.66-2.63.48 1.08 3.33-1.85 3.8-.3.16.77-3.64 2.15-3.96 4.47-.47 2.62 1.11 6.02 1.43 9.87zm63.63-12.5c1.27 3.1 6.8 2.47 9.5 2.78 2.53.31 2.53 2 3 4.48 2.22 11.26-11.55 25.61-20.41 32.25-2.7 2-6.18.3-6.65-3.09-.32-2-.16-4.01.63-5.86 1.42-3.55 3-6.48 4.27-9.72.16-.31.48-.77.95-.62.64.15.48.77.32 1.08-1.27 2.78-7.28 14.5-3.17 16.36 4.6 2 23.75-20.06 22-29.78-.31-1.7-.47-2.94-2.21-2.94-1.1 0-4.59.31-5.54 0-3.64-1.23-4.59-2.47-4.75-6.17 0-1.54-.47-1.85-1.74-.92a16.62 16.62 0 0 1-6.49 2.46c-1.27.16-1.74.78-1.58 2.16.31 1.86.63 3.7.79 5.56 0 .77.16 1.54-.8 2-.78.47-1.26-.15-1.57-.61-.64-.62-.64-1.24-.32-2.16.63-1.85.32-4.01-.32-5.87-.47-1.08-2.21-.77-3.64-.61-.32 0-.63.3-.95.46-.79.3-1.26 0-1.58-.62-.32-.77.16-1.08.63-1.39 1.27-.77 2.7-.3 3.96-.46.63-.15 1.58.31 1.9-.77.63-4.78 1.42-9.41 1.74-14.2 0-1.39.47-2.62.32-4.16 0-.77.15-1.55 1.1-1.4.8 0 .8.93.8 1.55-.16 2.78-.48 5.4-.8 8.18-.31 3.4-.79 6.94-1.26 10.34 2.53.3 4.59-.62 6.8-1.54.8-.31 1.43-1.55 1.75-2.16.47-.78 1.1-.62 1.9-.47.63.16 1.1.77.94 1.4-.31 1.38.64 3.08.48 4.47z"/></defs><use fill="#1b1918" xlink:href="#a" transform="translate(-38 -31)"/><g transform="translate(-38 -31)"><use fill="#f68cb2" xlink:href="#b"/><use fill="#fff" fill-opacity="0" stroke="#f68cb2" stroke-linecap="round" stroke-linejoin="round" stroke-miterlimit="50" stroke-width=".37" xlink:href="#b"/></g></svg>